<svg width="28" height="24" viewBox="0 0 28 24" fill="none" xmlns="http://www.w3.org/2000/svg">
<path d="M7.89943 24H0.254266C0.0607178 24 -0.0360564 23.8064 0.0123307 23.6613L9.93168 0.483871C10.0768 0.193548 10.3672 0 10.6575 0H18.3026C18.4962 0 18.593 0.193548 18.5446 0.33871L8.67362 23.5161C8.52846 23.8064 8.23814 24 7.89943 24Z" fill="#F6F6F9"/>
<path d="M20.3833 24H12.7382C12.5446 24 12.4478 23.8064 12.4962 23.6613L19.2704 9.24193C19.4156 8.9516 19.7059 8.75806 19.9962 8.75806H27.6414C27.8349 8.75806 27.9317 8.9516 27.8833 9.09677L21.1091 23.5161C21.0123 23.8064 20.722 24 20.3833 24Z" fill="#F6F6F9"/>
</svg>
