<svg width="16" height="16" viewBox="0 0 16 16" fill="none" xmlns="http://www.w3.org/2000/svg">
<g opacity="0.7">
<path d="M12.5834 3C13.5499 3 14.3334 3.7835 14.3334 4.75V11.25C14.3334 12.2165 13.5499 13 12.5834 13H3.41675C2.45025 13 1.66675 12.2165 1.66675 11.25V4.75C1.66675 3.7835 2.45025 3 3.41675 3H12.5834ZM13.5001 6.117L8.20088 9.03177C8.08975 9.0929 7.95765 9.09967 7.84188 9.05213L7.79928 9.03177L2.50008 6.117V11.25C2.50008 11.7563 2.91049 12.1667 3.41675 12.1667H12.5834C13.0897 12.1667 13.5001 11.7563 13.5001 11.25V6.117ZM12.5834 3.83333H3.41675C2.91049 3.83333 2.50008 4.24373 2.50008 4.75V5.16633L8.00008 8.19113L13.5001 5.166V4.75C13.5001 4.24373 13.0897 3.83333 12.5834 3.83333Z" fill="white"/>
</g>
</svg>
