<svg width="18" height="18" viewBox="0 0 18 18" fill="none" xmlns="http://www.w3.org/2000/svg">
<g opacity="0.7">
<path d="M9 2.25C6.20409 2.25 3.93751 4.51656 3.93751 7.3125V10.0141L2.85267 12.7288C2.78341 12.9021 2.80462 13.0984 2.90927 13.253C3.01391 13.4075 3.18838 13.5 3.375 13.5H6.75C6.75 14.7469 7.75311 15.75 9 15.75C10.2469 15.75 11.25 14.7469 11.25 13.5H14.625C14.8116 13.5 14.9861 13.4075 15.0907 13.253C15.1954 13.0984 15.2166 12.9021 15.1473 12.7288L14.0625 10.0141V7.3125C14.0625 4.51656 11.796 2.25 9 2.25ZM10.125 13.5C10.125 14.1256 9.62556 14.625 9 14.625C8.37444 14.625 7.875 14.1256 7.875 13.5H10.125ZM5.0625 7.3125C5.0625 5.13788 6.82537 3.375 9 3.375C11.1746 3.375 12.9375 5.13788 12.9375 7.3125V10.1223C12.9375 10.1938 12.9511 10.2647 12.9777 10.331L13.7945 12.375H4.20554L5.02234 10.331C5.04888 10.2647 5.0625 10.1938 5.0625 10.1223V7.3125Z" fill="white"/>
</g>
</svg>
