<svg width="16" height="16" viewBox="0 0 16 16" fill="none" xmlns="http://www.w3.org/2000/svg">
<path d="M9.73112 0.485919C9.16541 0.359501 8.58806 0.292406 8.00846 0.285714C7.41446 0.292561 6.83646 0.35963 6.27004 0.485842C6.02293 0.540909 5.83811 0.747266 5.81001 0.999356L5.67572 2.20649C5.63715 2.55192 5.43716 2.8588 5.13686 3.03334C4.83522 3.20991 4.46942 3.23104 4.15122 3.09113L3.04538 2.6044C2.81534 2.50315 2.54657 2.55836 2.37485 2.74212C1.57556 3.59744 0.980279 4.62325 0.633804 5.74235C0.559047 5.98387 0.645196 6.24629 0.848435 6.39614L1.82965 7.11961C2.10967 7.32577 2.27484 7.65266 2.27484 8.00039C2.27484 8.34811 2.10967 8.675 1.83001 8.88091L0.848184 9.6056C0.645247 9.75545 0.559175 10.0175 0.633676 10.2587C0.979546 11.3789 1.57451 12.4059 2.37379 13.2623C2.54535 13.4462 2.81398 13.5016 3.04406 13.4006L4.15484 12.913C4.4715 12.7744 4.83578 12.7948 5.1358 12.968C5.43581 13.1413 5.63593 13.4469 5.67508 13.7917L5.80841 14.9978C5.83592 15.2469 6.01669 15.4518 6.26001 15.5098C7.40378 15.7824 8.59551 15.7824 9.73928 15.5098C9.9826 15.4518 10.1633 15.2469 10.1909 14.9978L10.3244 13.7899C10.3625 13.4445 10.5623 13.1379 10.8626 12.9641C11.1629 12.7902 11.5278 12.7698 11.8455 12.9091L12.956 13.3966C13.186 13.4976 13.4546 13.4422 13.6261 13.2585C14.425 12.403 15.0199 11.3773 15.3663 10.2584C15.441 10.017 15.355 9.75474 15.1519 9.60483L14.1707 8.88052C13.8904 8.67423 13.7253 8.34727 13.7253 7.99961C13.7253 7.65189 13.8904 7.32494 14.17 7.11909L15.1504 6.39504C15.3534 6.24513 15.4394 5.98291 15.3647 5.74158C15.0182 4.62246 14.4229 3.59665 13.6236 2.74133C13.4519 2.55756 13.1831 2.50236 12.9531 2.60361L11.8471 3.09042C11.7087 3.15178 11.5605 3.18303 11.4107 3.18279C10.8535 3.18221 10.3861 2.76209 10.3252 2.20741L10.1908 0.999356C10.1628 0.747395 9.97811 0.541108 9.73112 0.485919ZM8.00003 10.5714C6.5799 10.5714 5.42861 9.42014 5.42861 8C5.42861 6.57986 6.5799 5.42857 8.00003 5.42857C9.42017 5.42857 10.5715 6.57986 10.5715 8C10.5715 9.42014 9.42017 10.5714 8.00003 10.5714Z" fill="white"/>
</svg>
